<svg width="47" height="47" viewBox="0 0 47 47" fill="none" xmlns="http://www.w3.org/2000/svg">
<path d="M31.3333 35.25L35.25 39.1667L43.0833 31.3334M43.0833 19.5834H3.91663M43.0833 23.5V16.0584C43.0833 13.8648 43.0833 12.768 42.6564 11.9302C42.2809 11.1933 41.6817 10.5941 40.9448 10.2186C40.1069 9.79169 39.0102 9.79169 36.8166 9.79169H10.1833C7.98975 9.79169 6.89298 9.79169 6.05516 10.2186C5.3182 10.5941 4.71902 11.1933 4.34352 11.9302C3.91663 12.768 3.91663 13.8648 3.91663 16.0584V30.9417C3.91663 33.1352 3.91663 34.232 4.34352 35.0698C4.71902 35.8068 5.31819 36.406 6.05516 36.7815C6.89298 37.2084 7.98975 37.2084 10.1833 37.2084H23.5" stroke="#353535" stroke-width="2" stroke-linecap="round" stroke-linejoin="round"/>
<g clip-path="url(#clip0_18_43)">
<path fill-rule="evenodd" clip-rule="evenodd" d="M36.6009 29.8864C35.1702 28.2139 32.7846 27.764 30.9921 29.2955C29.1996 30.8271 28.9473 33.3877 30.3549 35.1991C31.5253 36.7051 35.0672 39.8814 36.228 40.9094C36.3579 41.0244 36.4228 41.0819 36.4986 41.1045C36.5647 41.1243 36.637 41.1243 36.7031 41.1045C36.7789 41.0819 36.8438 41.0244 36.9737 40.9094C38.1346 39.8814 41.6765 36.7051 42.8468 35.1991C44.2545 33.3877 44.0329 30.8109 42.2096 29.2955C40.3863 27.7801 38.0315 28.2139 36.6009 29.8864Z" fill="#FFD334" stroke="#2D2D2D" stroke-width="2" stroke-linecap="round" stroke-linejoin="round"/>
</g>
<defs>
<clipPath id="clip0_18_43">
<rect width="17.1731" height="17.1731" fill="white" transform="translate(28.0193 26.2115)"/>
</clipPath>
</defs>
</svg>
