<svg width="43" height="43" viewBox="0 0 43 43" fill="none" xmlns="http://www.w3.org/2000/svg">
<path d="M31.6833 25.4167C32.2258 25.4167 32.497 25.4167 32.7168 25.5371C32.8982 25.6365 33.0669 25.8231 33.1477 26.0134C33.2456 26.2442 33.221 26.4897 33.1717 26.9808C32.9163 29.5267 32.04 31.9799 30.6097 34.1206C28.8882 36.697 26.4414 38.705 23.5787 39.8908C20.716 41.0766 17.5659 41.3868 14.5269 40.7823C11.4878 40.1778 8.69632 38.6857 6.50529 36.4947C4.31427 34.3037 2.82217 31.5121 2.21766 28.4731C1.61316 25.4341 1.92341 22.284 3.10919 19.4213C4.29496 16.5586 6.303 14.1118 8.87937 12.3903C11.0201 10.9599 13.4732 10.0837 16.0192 9.82827C16.5103 9.779 16.7558 9.75436 16.9866 9.85226C17.1769 9.93302 17.3635 10.1018 17.4628 10.2832C17.5833 10.503 17.5833 10.7742 17.5833 11.3167V23.85C17.5833 24.3984 17.5833 24.6726 17.69 24.882C17.7839 25.0663 17.9337 25.2161 18.1179 25.31C18.3274 25.4167 18.6016 25.4167 19.15 25.4167H31.6833Z" stroke="#353535" stroke-width="2" stroke-linecap="round" stroke-linejoin="round"/>
<path d="M25.4166 3.48334C25.4166 2.94088 25.4166 2.66964 25.5371 2.44981C25.6364 2.26847 25.823 2.09968 26.0134 2.01892C26.2441 1.92101 26.4897 1.94564 26.9807 1.9949C30.5614 2.35405 33.9276 3.93826 36.4946 6.50533C39.0617 9.0724 40.6459 12.4386 41.0051 16.0192C41.0543 16.5103 41.079 16.7559 40.9811 16.9866C40.9003 17.177 40.7315 17.3635 40.5502 17.4629C40.3303 17.5833 40.0591 17.5833 39.5166 17.5833L26.9833 17.5833C26.4349 17.5833 26.1607 17.5833 25.9513 17.4766C25.767 17.3827 25.6172 17.2329 25.5234 17.0487C25.4166 16.8393 25.4166 16.5651 25.4166 16.0167V3.48334Z" stroke="#353535" stroke-width="2" stroke-linecap="round" stroke-linejoin="round"/>
</svg>
