<svg width="47" height="47" viewBox="0 0 47 47" fill="none" xmlns="http://www.w3.org/2000/svg">
<path d="M25.4583 32.3125C25.4583 38.2611 20.7514 43.0834 14.9451 43.0834C13.7457 43.0834 12.5932 42.8776 11.5194 42.4986C11.1119 42.3548 10.9081 42.2828 10.771 42.2555C10.6267 42.2267 10.5486 42.2188 10.4014 42.2178C10.2616 42.2168 10.1016 42.2387 9.78145 42.2824L3.91663 43.0834L5.11384 37.675C5.19231 37.3206 5.23155 37.1433 5.24062 36.9865C5.25008 36.8228 5.24563 36.7318 5.2202 36.5698C5.19585 36.4146 5.12165 36.1875 4.97324 35.7332C4.62217 34.6585 4.43198 33.5083 4.43198 32.3125C4.43198 26.364 9.13888 21.5417 14.9451 21.5417C20.7514 21.5417 25.4583 26.364 25.4583 32.3125Z" fill="#FFD334"/>
<path d="M11.9348 21.9897C11.813 21.2053 11.7499 20.4017 11.7499 19.5834C11.7499 10.9309 18.8102 3.91669 27.5196 3.91669C36.229 3.91669 43.2894 10.9309 43.2894 19.5834C43.2894 21.5379 42.9291 23.4089 42.2709 25.1343C42.1342 25.4926 42.0658 25.6718 42.0348 25.8117C42.004 25.9503 41.9922 26.0478 41.9888 26.1897C41.9855 26.3329 42.0049 26.4907 42.0437 26.8063L42.8321 33.2105C42.9175 33.9037 42.9602 34.2504 42.8448 34.5024C42.7438 34.7232 42.5643 34.8985 42.3413 34.9945C42.0867 35.1039 41.7411 35.0533 41.05 34.952L34.8122 34.0376C34.4865 33.9899 34.3236 33.966 34.1753 33.9669C34.0286 33.9677 33.9271 33.9785 33.7835 34.0087C33.6383 34.0392 33.4529 34.1087 33.082 34.2476C31.3522 34.8955 29.4776 35.25 27.5196 35.25C26.7007 35.25 25.8963 35.188 25.111 35.0684M14.9451 43.0834C20.7514 43.0834 25.4583 38.2611 25.4583 32.3125C25.4583 26.364 20.7514 21.5417 14.9451 21.5417C9.13888 21.5417 4.43198 26.364 4.43198 32.3125C4.43198 33.5083 4.62217 34.6585 4.97324 35.7332C5.12165 36.1875 5.19585 36.4146 5.2202 36.5698C5.24563 36.7318 5.25008 36.8228 5.24062 36.9865C5.23155 37.1433 5.19231 37.3206 5.11384 37.675L3.91663 43.0834L9.78145 42.2824C10.1016 42.2387 10.2616 42.2168 10.4014 42.2178C10.5486 42.2188 10.6267 42.2267 10.771 42.2555C10.9081 42.2828 11.1119 42.3548 11.5194 42.4986C12.5932 42.8776 13.7457 43.0834 14.9451 43.0834Z" stroke="#353535" stroke-width="2" stroke-linecap="round" stroke-linejoin="round"/>
</svg>
